# xmcd
#
# Track frame offsets:
#	150
#	12928
#	26041
#	42940
#	61228
#	70264
#	85914
#	101473
#	118360
#	143076
#	157195
#	175925
#	187548
#	200286
#	215817
#
# Disc length: 3025 seconds
# Revision: 0
# Processed by: cddbd v1.5.2PL0 Copyright (c) Steve Scherf et al.
# Submitted via: dBpowerAMP V12.0
#
DISCID=d10bcf0f
DTITLE=Steve Lutke - Appalachian Uprising
DYEAR=2009
DGENRE=Bluegrass
TTITLE0=Mountain Creek
TTITLE1=Moon Dog
TTITLE2=Samba in the Hills
TTITLE3=The Sky Is Falling
TTITLE4=Chainsaw
TTITLE5=Bandolin Rain
TTITLE6=Hummingbird
TTITLE7=Spinner
TTITLE8=Scottish Feat
TTITLE9=House of Cards
TTITLE10=The Unseen
TTITLE11=Sunburn
TTITLE12=Minor Rage
TTITLE13=White's Creek
TTITLE14=Revelation
EXTD=
EXTT0=
EXTT1=
EXTT2=
EXTT3=
EXTT4=
EXTT5=
EXTT6=
EXTT7=
EXTT8=
EXTT9=
EXTT10=
EXTT11=
EXTT12=
EXTT13=
EXTT14=
PLAYORDER=
